<svg width="48" height="47" viewBox="0 0 48 47" fill="none" xmlns="http://www.w3.org/2000/svg">
<path d="M1.29028 44.2645C1.29028 44.2645 15.898 44.2575 45.1352 44.2459V44.0775C45.1352 44.0208 45.1365 43.9957 45.1352 43.9558C45.1331 43.8952 45.1274 43.8461 45.1231 43.8147C45.1112 43.7504 45.1065 43.7249 45.1065 43.7249C45.1065 43.7249 45.1203 43.7969 45.1197 43.7969C45.119 43.7969 45.1022 43.7277 45.092 43.6394C45.0901 43.6231 45.0888 43.6094 45.0879 43.6L44.7076 40.4077C44.6933 40.2873 44.5889 40.1971 44.4666 40.1994L40.3673 40.2772C40.2869 40.2787 40.2125 40.3205 40.17 40.388L39.9839 40.683C39.9649 40.713 39.9532 40.7468 39.9491 40.782L39.639 43.5494C39.6256 43.669 39.5239 43.7594 39.4024 43.7594H36.2616C36.1406 43.7594 36.0386 43.6692 36.0252 43.5499L35.6767 40.4891C35.663 40.3698 35.5613 40.2796 35.4403 40.2796H31.157C31.0401 40.2796 30.9407 40.3636 30.9221 40.478L30.4205 43.561C30.402 43.6754 30.3024 43.7594 30.1857 43.7594H26.7415C26.6245 43.7594 26.5251 43.6754 26.5066 43.561L26.005 40.478C25.9864 40.3636 25.8868 40.2796 25.7701 40.2796H21.7598C21.6429 40.2796 21.5435 40.3636 21.5249 40.478L21.0234 43.561C21.0048 43.6754 20.9052 43.7594 20.7885 43.7594H17.4214C17.2959 43.7594 17.1919 43.6628 17.1839 43.5385L16.9862 40.5002C16.9782 40.376 16.8743 40.2794 16.7487 40.2794H12.1817C12.0616 40.2794 11.9602 40.3681 11.9455 40.4863L11.5631 43.552C11.5484 43.6703 11.447 43.759 11.3269 43.759H8.61996C8.50586 43.759 8.40798 43.6788 8.38637 43.5679L7.78175 40.4702C7.76015 40.3593 7.66204 40.2791 7.54816 40.2791H3.35845C3.16851 41.1166 2.98743 41.977 2.81694 42.8598C2.72553 43.3331 2.63953 43.8012 2.55871 44.2639C1.71381 44.2639 1.29072 44.2639 1.29072 44.2639L1.29028 44.2645Z" fill="#FF5800" stroke="#231F20" stroke-width="0.5" stroke-miterlimit="10"/>
<path d="M47.1684 43.9742H1V46.5875H47.1684V43.9742Z" fill="#FF5800" stroke="#231F20" stroke-width="0.5" stroke-miterlimit="10"/>
<path d="M26.5522 16.0992C26.8714 16.1635 28.4924 16.5232 29.5415 18.0653C30.5189 19.5018 30.3302 20.98 30.2766 21.3259" stroke="#FF5800" stroke-width="2" stroke-miterlimit="10"/>
<path d="M26.8428 11.7438C27.4963 11.8609 30.4177 12.456 32.4284 15.1311C34.764 18.2384 34.0125 21.6802 33.8902 22.1971" stroke="#FF5800" stroke-width="2" stroke-miterlimit="10"/>
<path d="M26.5522 7.38806C27.7229 7.60344 31.4275 8.44188 34.1927 11.8103C38.4914 17.0469 36.6299 23.6598 36.4592 24.2294" stroke="#FF5800" stroke-width="2" stroke-miterlimit="10"/>
<path d="M20.8656 35.263C20.9221 34.3741 20.9788 33.4851 21.0353 32.5962H18.9814V30.3285L16.3894 28.004V31.666C16.3924 31.8907 16.3954 32.1155 16.3986 32.3402C17.3743 33.3612 18.6637 34.3837 20.326 35.0606C20.5075 35.1344 20.6875 35.2019 20.8656 35.2632V35.263Z" fill="#A0A0A0"/>
<path d="M26.4445 31.3422C19.2242 32.3492 15.525 27.8332 15.525 27.833C11.8499 23.3463 13.4238 16.8108 14.2292 16.6819C14.7293 16.6018 15.0646 18.972 17.7223 22.6039C18.0583 23.0629 18.7081 23.9455 19.6371 24.9336C23.3139 28.8449 27.4089 30.2085 27.1183 31.0243C27.0406 31.2429 26.6886 31.3082 26.4443 31.3422H26.4445Z" fill="#A0A0A0"/>
<path d="M27.008 31.1201C26.4463 31.5489 24.2384 30.1904 21.7218 27.5493C20.9816 26.7725 20.2147 25.8846 19.4551 24.8987C16.1132 20.5606 13.4606 17.007 14.1875 16.4522C14.9144 15.8975 18.0607 19.0851 21.5549 23.3026C25.222 27.7285 27.7346 30.5654 27.0078 31.1201H27.008Z" fill="white" stroke="#FF5800" stroke-width="0.5" stroke-miterlimit="10"/>
<path d="M21.9065 27.7924C22.3712 25.9271 22.8359 24.0619 23.3006 22.1967C23.4166 22.2628 23.5328 22.3288 23.6487 22.3949C23.165 24.2646 22.6815 26.1343 22.1978 28.0041C22.1006 27.9335 22.0034 27.8627 21.9065 27.7922V27.7924Z" fill="#FF5800"/>
<path d="M19.8738 25.6605C20.9783 24.6028 22.0828 23.545 23.1873 22.4873C23.2443 22.5927 23.3012 22.6979 23.3582 22.8033C22.2842 23.8594 21.2102 24.9155 20.1361 25.9717C20.0487 25.868 19.9612 25.7643 19.8738 25.6605Z" fill="#FF5800"/>
<path d="M17.8415 23.0684C19.5836 22.8747 21.3259 22.681 23.0679 22.4873C23.0439 22.6072 23.0199 22.7271 22.9959 22.847C21.3492 23.0176 19.7027 23.1881 18.0559 23.3584C17.9844 23.2617 17.9128 23.1649 17.8413 23.0682L17.8415 23.0684Z" fill="#FF5800"/>
<path d="M23.213 23.3584C23.6139 23.3584 23.9389 23.0334 23.9389 22.6325C23.9389 22.2316 23.6139 21.9066 23.213 21.9066C22.8121 21.9066 22.4871 22.2316 22.4871 22.6325C22.4871 23.0334 22.8121 23.3584 23.213 23.3584Z" fill="#FF5800"/>
<path d="M39.3286 29.4317C37.9687 32.2115 35.9057 34.58 33.3733 36.3025C30.5648 38.2128 27.1789 39.3283 23.5337 39.3283C13.8152 39.3283 5.93628 31.3987 5.93628 21.6164C5.93628 11.8341 13.8152 3.90344 23.5337 3.90344C23.5864 3.90344 23.6404 3.90344 23.693 3.90453V8.46965C23.6404 8.46726 23.5864 8.46726 23.5337 8.46726C16.3185 8.46726 10.4703 14.3538 10.4703 21.6164C10.4703 28.879 16.3185 34.7656 23.5337 34.7656C28.3454 34.7656 32.5492 32.1476 34.815 28.2487L39.3286 29.4317Z" fill="#FF5800" stroke="#231F20" stroke-width="0.5" stroke-miterlimit="10"/>
<path fill-rule="evenodd" clip-rule="evenodd" d="M17.3047 38.168C17.1157 38.0965 17.6011 43.1035 17.4874 43.1035C17.3736 43.1035 20.8949 43.1035 20.8949 43.1035L21.616 39.1961L17.3047 38.1678V38.168Z" fill="#FF5800" stroke="#231F20" stroke-width="0.5" stroke-miterlimit="10"/>
<path fill-rule="evenodd" clip-rule="evenodd" d="M25.9719 39.1159C26.2782 40.445 26.5844 41.7741 26.8907 43.1033C28.1276 43.0851 29.3645 43.0668 30.6014 43.0486C30.6068 41.3247 30.6122 39.6006 30.6176 37.8766C29.8642 38.128 29.0551 38.3723 28.1922 38.5996C27.4207 38.8028 26.6786 38.973 25.9717 39.1161L25.9719 39.1159Z" fill="#FF5800" stroke="#231F20" stroke-width="0.5" stroke-miterlimit="10"/>
<path d="M11.7435 8.52048C10.8591 7.85265 9.97444 7.18461 9.09003 6.51678L6.51709 9.21886C7.2537 10.1571 7.99032 11.0955 8.72693 12.0338C9.11173 11.4482 9.58313 10.8053 10.1563 10.1414C10.7028 9.50847 11.2432 8.97115 11.7437 8.52026L11.7435 8.52048Z" fill="#FF5800" stroke="#231F20" stroke-width="0.5" stroke-miterlimit="10"/>
<path d="M20.4546 4.2674C20.045 3.17834 19.6357 2.08906 19.2262 1L15.5183 1.8827C15.6892 3.13702 15.8604 4.39156 16.0313 5.64588C16.6203 5.34706 17.3448 5.03227 18.1959 4.76799C19.0361 4.50698 19.8038 4.35593 20.4543 4.2674H20.4546Z" fill="#FF5800" stroke="#231F20" stroke-width="0.5" stroke-miterlimit="10"/>
<path d="M6.80742 15.8896C5.68746 15.7659 4.56772 15.6423 3.44776 15.5186C3.28767 16.0671 3.12759 16.6155 2.96728 17.164C2.79556 17.7524 2.62363 18.3409 2.4519 18.9291C3.58953 19.3409 4.72716 19.7527 5.86457 20.1644C6.00656 19.271 6.10717 18.5847 6.17311 18.1221C6.22288 17.7727 6.26403 17.4721 6.37348 17.0657C6.50965 16.5601 6.67965 16.1586 6.8072 15.8896H6.80742Z" fill="#FF5800" stroke="#231F20" stroke-width="0.5" stroke-miterlimit="10"/>
<path d="M6.48922 25.6811C5.5305 26.1239 4.572 26.5668 3.61328 27.0095C3.7367 27.5896 3.86034 28.1697 3.98375 28.7498C4.11628 29.3723 4.24881 29.9946 4.38112 30.6171C5.67388 30.4545 6.96641 30.2919 8.25916 30.129C7.85811 29.3285 7.54012 28.6518 7.30565 28.1379C7.08419 27.6526 6.95557 27.353 6.82412 26.9626C6.64995 26.4449 6.54909 25.9996 6.489 25.6808L6.48922 25.6811Z" fill="#FF5800" stroke="#231F20" stroke-width="0.5" stroke-miterlimit="10"/>
<path d="M10.4333 33.2311C9.70861 34.2921 8.98371 35.3531 8.25903 36.4141C8.62785 36.8829 8.99666 37.3515 9.36547 37.8203C9.76123 38.3231 10.1568 38.8261 10.5525 39.3289C11.8207 38.4206 13.0886 37.5125 14.3568 36.6042C13.5833 36.1168 12.9647 35.6438 12.5006 35.2585C12.1331 34.9531 11.8358 34.6803 11.6276 34.4825C11.1408 34.02 10.7431 33.5893 10.4333 33.2311Z" fill="#FF5800" stroke="#231F20" stroke-width="0.5" stroke-miterlimit="10"/>
<path d="M34.102 35.7642C35.0698 36.5652 36.0377 37.366 37.0055 38.167C37.4258 37.7643 37.8461 37.3613 38.2662 36.9586C38.7171 36.5264 39.1679 36.0943 39.6188 35.6621C38.8468 34.6581 38.0748 33.6542 37.3026 32.65C36.9657 33.1006 36.6555 33.4546 36.4182 33.7093C35.9029 34.2622 35.4508 34.6478 34.9862 35.0439C34.6308 35.3471 34.3246 35.5911 34.1018 35.7642H34.102Z" fill="#FF5800" stroke="#231F20" stroke-width="0.5" stroke-miterlimit="10"/>
</svg>
