<svg width="384" height="378" viewBox="0 0 384 378" fill="none" xmlns="http://www.w3.org/2000/svg">
<path d="M123.901 73.6091C122.715 74.8384 121.749 76.2623 121.045 77.8186L120.959 77.7334L1.42913 346.996L1.54635 347.113C-0.670326 351.408 3.03835 360.147 10.6369 367.756C18.2354 375.355 26.9742 379.063 31.2691 376.847L31.3756 376.953L300.638 257.412L300.553 257.316C302.12 256.57 303.558 255.665 304.763 254.45C321.409 237.803 294.415 183.825 244.486 133.886C194.536 83.9465 140.558 56.9626 123.901 73.6091Z" fill="#DD2E44"/>
<path d="M138.544 121.694L4.43443 340.229L1.42913 346.996L1.54635 347.113C-0.670326 351.408 3.03835 360.147 10.6369 367.756C13.1093 370.229 15.6777 372.104 18.1928 373.692L181.172 174.98L138.544 121.694Z" fill="#EA596E"/>
<path d="M245.241 133.054C295.01 182.844 322.644 235.917 306.935 251.604C291.237 267.313 238.165 239.689 188.364 189.921C138.584 140.131 110.961 87.0369 126.659 71.339C142.368 55.641 195.44 83.2643 245.241 133.054Z" fill="#A0041E"/>
<path d="M198.116 138.841C195.915 140.611 193.102 141.436 190.294 141.133C181.044 140.131 173.264 136.912 167.818 131.829C162.053 126.447 159.207 119.222 159.985 111.985C161.349 99.2821 174.095 87.6232 195.825 89.9678C204.276 90.8736 208.049 88.1561 208.177 86.8559C208.326 85.5664 205.225 82.1028 196.773 81.1863C187.523 80.1845 179.743 76.9661 174.287 71.8826C168.521 66.5008 165.665 59.2753 166.454 52.0391C167.839 39.3358 180.575 27.6769 202.283 30.0321C208.443 30.6929 211.693 29.4247 213.068 28.6041C214.166 27.9327 214.603 27.2933 214.645 26.9203C214.773 25.6308 211.715 22.1672 203.242 21.2507C200.433 20.945 197.86 19.5361 196.089 17.3337C194.319 15.1314 193.495 12.3159 193.8 9.50653C193.947 8.11487 194.368 6.76602 195.038 5.53744C195.708 4.30886 196.615 3.22477 197.705 2.34741C198.795 1.47005 200.048 0.816706 201.391 0.424907C202.735 0.033108 204.143 -0.0894311 205.534 0.0643261C227.242 2.39823 237.217 16.4976 235.842 29.2115C234.457 41.9361 221.722 53.5737 199.992 51.2398C193.832 50.5684 190.614 51.8473 189.228 52.6679C188.13 53.3286 187.683 53.9787 187.64 54.341C187.502 55.6412 190.582 59.0941 199.054 60.0106C220.763 62.3552 230.738 76.4439 229.363 89.1578C227.988 101.872 215.253 113.52 193.534 111.165C187.374 110.504 184.134 111.783 182.749 112.593C181.64 113.275 181.214 113.914 181.171 114.277C181.033 115.566 184.113 119.03 192.575 119.946C194.67 120.172 196.651 121.015 198.268 122.367C199.885 123.719 201.064 125.52 201.657 127.543C202.25 129.565 202.231 131.718 201.6 133.729C200.97 135.74 199.758 137.519 198.116 138.841Z" fill="#AA8DD8"/>
<path d="M326.759 237.398C347.785 231.462 362.29 240.84 365.743 253.149C369.196 265.448 361.714 281.018 340.698 286.933C332.492 289.234 330.031 293.156 330.361 294.403C330.723 295.661 334.89 297.728 343.075 295.416C364.091 289.501 378.595 298.879 382.048 311.177C385.522 323.486 378.02 339.035 356.993 344.961C348.798 347.262 346.325 351.195 346.688 352.442C347.05 353.689 351.196 355.756 359.391 353.454C360.751 353.034 362.181 352.89 363.597 353.031C365.013 353.173 366.386 353.596 367.636 354.277C368.886 354.958 369.987 355.882 370.874 356.995C371.76 358.108 372.415 359.387 372.8 360.757C373.184 362.128 373.29 363.561 373.112 364.973C372.933 366.385 372.474 367.747 371.76 368.978C371.047 370.21 370.094 371.286 368.958 372.143C367.822 373 366.526 373.621 365.146 373.969C344.141 379.884 329.626 370.527 326.151 358.207C322.699 345.909 330.191 330.36 351.228 324.435C359.434 322.122 361.895 318.211 361.533 316.954C361.192 315.707 357.036 313.629 348.851 315.931C327.814 321.856 313.32 312.499 309.857 300.169C306.393 287.87 313.885 272.322 334.912 266.386C343.096 264.094 345.558 260.151 345.217 258.915C344.855 257.657 340.709 255.59 332.514 257.892C331.144 258.353 329.695 258.531 328.254 258.415C326.813 258.299 325.411 257.891 324.133 257.215C322.855 256.54 321.728 255.612 320.82 254.487C319.912 253.363 319.242 252.065 318.851 250.674C318.46 249.282 318.357 247.826 318.547 246.393C318.736 244.96 319.216 243.58 319.956 242.339C320.695 241.097 321.68 240.018 322.849 239.169C324.019 238.32 325.349 237.717 326.759 237.398Z" fill="#77B255"/>
<path d="M245.126 208.656C242.919 208.653 240.767 207.966 238.967 206.689C237.168 205.412 235.808 203.608 235.076 201.526C234.344 199.444 234.276 197.186 234.881 195.064C235.486 192.941 236.735 191.059 238.454 189.676C240.778 187.811 296.195 144.287 374.514 155.488C375.931 155.648 377.301 156.091 378.544 156.79C379.786 157.49 380.876 158.431 381.748 159.559C382.62 160.688 383.257 161.979 383.621 163.358C383.985 164.737 384.068 166.174 383.866 167.586C383.664 168.998 383.181 170.354 382.446 171.576C381.71 172.797 380.737 173.859 379.583 174.697C378.43 175.536 377.12 176.134 375.731 176.457C374.342 176.78 372.903 176.821 371.498 176.578C302.301 166.752 252.277 205.928 251.786 206.322C249.896 207.834 247.547 208.657 245.126 208.656Z" fill="#AA8DD8"/>
<path d="M61.3221 164.322C59.661 164.323 58.0228 163.934 56.5384 163.189C55.054 162.443 53.7644 161.361 52.7726 160.029C51.7807 158.696 51.1141 157.15 50.8259 155.514C50.5376 153.879 50.6358 152.198 51.1126 150.607C63.1871 110.397 74.1319 46.2309 60.6826 29.4993C59.18 27.6023 56.91 25.7373 51.7094 26.1316C41.713 26.8989 42.6615 47.9894 42.6721 48.2025C42.8075 49.6144 42.6596 51.039 42.2373 52.393C41.8149 53.747 41.1266 55.0031 40.2125 56.0876C39.2984 57.1722 38.1771 58.0633 36.9142 58.7089C35.6512 59.3544 34.2722 59.7414 32.8578 59.847C31.4434 59.9527 30.0221 59.775 28.6773 59.3243C27.3324 58.8737 26.0911 58.1591 25.026 57.2224C23.9609 56.2858 23.0935 55.146 22.4746 53.8698C21.8557 52.5936 21.4978 51.2067 21.4218 49.7904C20.3241 35.0942 24.896 6.78894 50.1108 4.88132C61.3647 4.02875 70.711 7.93991 77.3078 16.1459C102.576 47.595 76.9241 138.767 71.5316 156.735C70.8717 158.929 69.5221 160.852 67.6831 162.219C65.844 163.586 63.6134 164.323 61.3221 164.322Z" fill="#77B255"/>
<path d="M271.756 111.037C280.584 111.037 287.741 103.88 287.741 95.0512C287.741 86.2225 280.584 79.0655 271.756 79.0655C262.927 79.0655 255.77 86.2225 255.77 95.0512C255.77 103.88 262.927 111.037 271.756 111.037Z" fill="#5C913B"/>
<path d="M21.3142 206.951C33.0858 206.951 42.6285 197.408 42.6285 185.637C42.6285 173.865 33.0858 164.322 21.3142 164.322C9.54271 164.322 0 173.865 0 185.637C0 197.408 9.54271 206.951 21.3142 206.951Z" fill="#9266CC"/>
<path d="M346.358 217.608C355.186 217.608 362.343 210.451 362.343 201.622C362.343 192.794 355.186 185.637 346.358 185.637C337.529 185.637 330.372 192.794 330.372 201.622C330.372 210.451 337.529 217.608 346.358 217.608Z" fill="#5C913B"/>
<path d="M250.444 345.493C259.272 345.493 266.429 338.336 266.429 329.508C266.429 320.679 259.272 313.522 250.444 313.522C241.615 313.522 234.458 320.679 234.458 329.508C234.458 338.336 241.615 345.493 250.444 345.493Z" fill="#5C913B"/>
<path d="M298.399 57.7511C310.17 57.7511 319.713 48.2084 319.713 36.4369C319.713 24.6654 310.17 15.1227 298.399 15.1227C286.627 15.1227 277.085 24.6654 277.085 36.4369C277.085 48.2084 286.627 57.7511 298.399 57.7511Z" fill="#FFCC4D"/>
<path d="M346.358 100.38C355.186 100.38 362.343 93.2227 362.343 84.3941C362.343 75.5654 355.186 68.4084 346.358 68.4084C337.529 68.4084 330.372 75.5654 330.372 84.3941C330.372 93.2227 337.529 100.38 346.358 100.38Z" fill="#FFCC4D"/>
<path d="M314.385 143.008C323.214 143.008 330.371 135.851 330.371 127.022C330.371 118.194 323.214 111.037 314.385 111.037C305.557 111.037 298.4 118.194 298.4 127.022C298.4 135.851 305.557 143.008 314.385 143.008Z" fill="#FFCC4D"/>
<path d="M79.9276 260.236C88.7562 260.236 95.9132 253.079 95.9132 244.251C95.9132 235.422 88.7562 228.265 79.9276 228.265C71.0989 228.265 63.9419 235.422 63.9419 244.251C63.9419 253.079 71.0989 260.236 79.9276 260.236Z" fill="#FFCC4D"/>
</svg>
