<svg width="41" height="41" viewBox="0 0 41 41" fill="none" xmlns="http://www.w3.org/2000/svg">
<path d="M1.24976 38.2926C1.24976 38.2926 13.8062 38.2866 38.9377 38.2766V38.1319C38.9377 38.0831 38.9388 38.0615 38.9377 38.0273C38.9359 37.9752 38.931 37.933 38.9273 37.9059C38.9171 37.8507 38.913 37.8288 38.913 37.8288C38.913 37.8288 38.9249 37.8906 38.9244 37.8906C38.9238 37.8906 38.9093 37.8312 38.9006 37.7553C38.8989 37.7413 38.8978 37.7295 38.8971 37.7214L38.5701 34.9774C38.5579 34.8739 38.4682 34.7964 38.363 34.7984L34.8393 34.8652C34.7702 34.8665 34.7063 34.9024 34.6697 34.9604L34.5098 35.214C34.4935 35.2398 34.4834 35.2689 34.4799 35.2991L34.2134 37.6779C34.2018 37.7807 34.1144 37.8584 34.01 37.8584H31.3102C31.2062 37.8584 31.1185 37.7809 31.107 37.6783L30.8074 35.0474C30.7957 34.9448 30.7082 34.8673 30.6042 34.8673H26.9224C26.8219 34.8673 26.7365 34.9394 26.7205 35.0378L26.2894 37.6879C26.2734 37.7862 26.1878 37.8584 26.0875 37.8584H23.1269C23.0264 37.8584 22.941 37.7862 22.925 37.6879L22.4939 35.0378C22.4779 34.9394 22.3923 34.8673 22.292 34.8673H18.8448C18.7443 34.8673 18.6589 34.9394 18.6429 35.0378L18.2118 37.6879C18.1958 37.7862 18.1102 37.8584 18.0099 37.8584H15.1156C15.0077 37.8584 14.9184 37.7754 14.9115 37.6686L14.7416 35.0569C14.7347 34.9501 14.6453 34.8671 14.5374 34.8671H10.6118C10.5085 34.8671 10.4214 34.9433 10.4087 35.045L10.08 37.6802C10.0673 37.7818 9.98023 37.858 9.87696 37.858H7.55015C7.45208 37.858 7.36794 37.7892 7.34937 37.6938L6.82966 35.0311C6.81108 34.9358 6.72676 34.8669 6.62887 34.8669H3.0275C2.86423 35.5867 2.70858 36.3263 2.56203 37.0852C2.48346 37.492 2.40953 37.8943 2.34007 38.2921C1.61381 38.2921 1.25013 38.2921 1.25013 38.2921L1.24976 38.2926Z" fill="#005680" stroke="#231F20" stroke-width="0.5" stroke-miterlimit="10"/>
<path d="M40.6852 38.043H1V40.2893H40.6852V38.043Z" fill="#005680" stroke="#231F20" stroke-width="0.5" stroke-miterlimit="10"/>
<path d="M22.9641 14.0825C23.2385 14.1377 24.6318 14.4469 25.5336 15.7725C26.3738 17.0073 26.2115 18.2779 26.1654 18.5752" stroke="#005680" stroke-width="2" stroke-miterlimit="10"/>
<path d="M23.2136 10.3389C23.7754 10.4395 26.2865 10.9511 28.0149 13.2504C30.0225 15.9214 29.3766 18.8799 29.2714 19.3242" stroke="#005680" stroke-width="2" stroke-miterlimit="10"/>
<path d="M22.9641 6.59521C23.9704 6.78035 27.1547 7.50105 29.5316 10.3965C33.2267 14.8977 31.6266 20.582 31.4799 21.0716" stroke="#005680" stroke-width="2" stroke-miterlimit="10"/>
<path d="M18.0759 30.5551C18.1245 29.791 18.1732 29.0269 18.2218 28.2628H16.4563V26.3135L14.2283 24.3154V27.4632C14.2309 27.6563 14.2334 27.8496 14.2362 28.0427C15.0748 28.9203 16.1832 29.7992 17.6121 30.3811C17.7681 30.4445 17.9228 30.5025 18.0759 30.5552V30.5551Z" fill="#00C9F9"/>
<path d="M22.8716 27.1854C16.6652 28.0509 13.4854 24.1691 13.4854 24.1689C10.3265 20.3123 11.6793 14.6945 12.3716 14.5837C12.8015 14.5149 13.0897 16.5522 15.3742 19.6741C15.663 20.0687 16.2216 20.8273 17.0201 21.6767C20.1806 25.0387 23.7006 26.2109 23.4508 26.9121C23.3839 27.1 23.0814 27.1561 22.8714 27.1854H22.8716Z" fill="#00C9F9"/>
<path d="M23.3557 26.9942C22.8729 27.3627 20.9751 26.195 18.8119 23.9248C18.1756 23.2571 17.5164 22.4939 16.8635 21.6464C13.9908 17.9175 11.7108 14.8629 12.3356 14.386C12.9604 13.9092 15.6648 16.6491 18.6684 20.2744C21.8205 24.0788 23.9803 26.5173 23.3555 26.9942H23.3557Z" fill="black" stroke="#005680" stroke-width="0.5" stroke-miterlimit="10"/>
<path d="M18.9707 24.1341C19.3702 22.5308 19.7696 20.9275 20.1691 19.3242C20.2687 19.381 20.3686 19.4378 20.4683 19.4946C20.0525 21.1017 19.6369 22.7089 19.2211 24.3161C19.1376 24.2554 19.054 24.1946 18.9707 24.1339V24.1341Z" fill="#005680"/>
<path d="M17.2234 22.3014C18.1728 21.3921 19.1222 20.4829 20.0716 19.5737C20.1206 19.6643 20.1695 19.7548 20.2185 19.8454C19.2953 20.7531 18.3721 21.6609 17.4489 22.5688C17.3737 22.4797 17.2986 22.3905 17.2234 22.3014Z" fill="#005680"/>
<path d="M15.4765 20.0732C16.9739 19.9067 18.4716 19.7402 19.969 19.5737C19.9484 19.6768 19.9277 19.7799 19.9071 19.8829C18.4916 20.0295 17.0763 20.1761 15.6608 20.3225C15.5993 20.2394 15.5378 20.1562 15.4763 20.073L15.4765 20.0732Z" fill="#005680"/>
<path d="M20.094 20.3222C20.4386 20.3222 20.7179 20.0428 20.7179 19.6982C20.7179 19.3536 20.4386 19.0742 20.094 19.0742C19.7493 19.0742 19.47 19.3536 19.47 19.6982C19.47 20.0428 19.7493 20.3222 20.094 20.3222Z" fill="#005680"/>
<path d="M33.9461 25.5431C32.7771 27.9325 31.0039 29.9684 28.8271 31.449C26.413 33.0911 23.5025 34.0499 20.3692 34.0499C12.0155 34.0499 5.24292 27.2338 5.24292 18.8252C5.24292 10.4166 12.0155 3.59961 20.3692 3.59961C20.4145 3.59961 20.4609 3.59961 20.5062 3.60054V7.52461C20.4609 7.52255 20.4145 7.52255 20.3692 7.52255C14.1672 7.52255 9.14028 12.5825 9.14028 18.8252C9.14028 25.0679 14.1672 30.1279 20.3692 30.1279C24.5052 30.1279 28.1187 27.8776 30.0663 24.5261L33.9461 25.5431Z" fill="#005680" stroke="#231F20" stroke-width="0.5" stroke-miterlimit="10"/>
<path fill-rule="evenodd" clip-rule="evenodd" d="M15.015 33.0519C14.8526 32.9905 15.2698 37.2943 15.1721 37.2943C15.0743 37.2943 18.1011 37.2943 18.1011 37.2943L18.7209 33.9356L15.015 33.0517V33.0519Z" fill="#005680" stroke="#231F20" stroke-width="0.5" stroke-miterlimit="10"/>
<path fill-rule="evenodd" clip-rule="evenodd" d="M22.4653 33.8675C22.7285 35.0099 22.9918 36.1524 23.255 37.2949C24.3183 37.2793 25.3815 37.2635 26.4447 37.2479C26.4493 35.7661 26.4539 34.2841 26.4586 32.8022C25.811 33.0183 25.1155 33.2283 24.3738 33.4236C23.7106 33.5983 23.0727 33.7447 22.4651 33.8676L22.4653 33.8675Z" fill="#005680" stroke="#231F20" stroke-width="0.5" stroke-miterlimit="10"/>
<path d="M10.2347 7.56803C9.47445 6.99398 8.71404 6.41975 7.95382 5.8457L5.74219 8.16834C6.37536 8.97482 7.00854 9.78148 7.64171 10.588C7.97248 10.0846 8.37768 9.53198 8.87037 8.96131C9.34013 8.41728 9.80465 7.95542 10.2349 7.56784L10.2347 7.56803Z" fill="#005680" stroke="#231F20" stroke-width="0.5" stroke-miterlimit="10"/>
<path d="M17.7226 3.91257C17.3705 2.97645 17.0187 2.04013 16.6667 1.104L13.4795 1.86275C13.6264 2.94093 13.7735 4.0193 13.9205 5.09748C14.4267 4.84062 15.0495 4.57004 15.7811 4.34287C16.5033 4.11851 17.1631 3.98867 17.7224 3.91257H17.7226Z" fill="#005680" stroke="#231F20" stroke-width="0.5" stroke-miterlimit="10"/>
<path d="M5.99193 13.9025C5.02925 13.7961 4.06674 13.6899 3.10406 13.5835C2.96645 14.055 2.82885 14.5264 2.69105 14.9979C2.54345 15.5037 2.39565 16.0095 2.24805 16.5151C3.22592 16.8691 4.2038 17.223 5.18148 17.577C5.30353 16.809 5.39002 16.2191 5.4467 15.8214C5.48948 15.5211 5.52485 15.2627 5.61893 14.9134C5.73598 14.4788 5.88211 14.1337 5.99175 13.9025H5.99193Z" fill="#005680" stroke="#231F20" stroke-width="0.5" stroke-miterlimit="10"/>
<path d="M5.71818 22.319C4.89409 22.6997 4.07018 23.0804 3.24609 23.4609C3.35218 23.9596 3.45846 24.4582 3.56454 24.9569C3.67846 25.492 3.79238 26.0268 3.90611 26.5619C5.01733 26.4221 6.12836 26.2824 7.23957 26.1424C6.89484 25.4542 6.62151 24.8726 6.41996 24.4309C6.2296 24.0137 6.11904 23.7562 6.00605 23.4206C5.85633 22.9756 5.76964 22.5929 5.71799 22.3188L5.71818 22.319Z" fill="#005680" stroke="#231F20" stroke-width="0.5" stroke-miterlimit="10"/>
<path d="M9.10892 28.8086C8.48601 29.7206 7.86291 30.6326 7.23999 31.5446C7.55701 31.9475 7.87403 32.3503 8.19106 32.7533C8.53124 33.1855 8.87125 33.6179 9.21144 34.05C10.3015 33.2693 11.3914 32.4888 12.4814 31.708C11.8166 31.289 11.2848 30.8825 10.8859 30.5512C10.57 30.2887 10.3144 30.0543 10.1355 29.8842C9.71707 29.4867 9.37524 29.1165 9.10892 28.8086Z" fill="#005680" stroke="#231F20" stroke-width="0.5" stroke-miterlimit="10"/>
<path d="M29.4538 30.986C30.2857 31.6745 31.1176 32.3628 31.9495 33.0513C32.3108 32.7052 32.6721 32.3588 33.0332 32.0126C33.4208 31.6412 33.8083 31.2697 34.1959 30.8982C33.5323 30.0352 32.8687 29.1722 32.205 28.3091C31.9153 28.6964 31.6487 29.0007 31.4447 29.2196C31.0018 29.6949 30.6132 30.0263 30.2139 30.3668C29.9083 30.6274 29.6451 30.8372 29.4536 30.986H29.4538Z" fill="#005680" stroke="#231F20" stroke-width="0.5" stroke-miterlimit="10"/>
</svg>
