<svg width="58" height="57" viewBox="0 0 58 57" fill="none" xmlns="http://www.w3.org/2000/svg">
<path d="M1.45044 53.4782C1.45044 53.4782 19.1688 53.4696 54.6321 53.4556V53.2513C54.6321 53.1825 54.6337 53.1521 54.6321 53.1037C54.6295 53.0302 54.6227 52.9707 54.6175 52.9325C54.603 52.8545 54.5973 52.8236 54.5973 52.8236C54.5973 52.8236 54.614 52.9109 54.6133 52.9109C54.6125 52.9109 54.592 52.827 54.5797 52.7199C54.5774 52.7002 54.5758 52.6835 54.5747 52.6721L54.1134 48.8C54.0961 48.654 53.9695 48.5446 53.8212 48.5474L48.8488 48.6417C48.7513 48.6436 48.6612 48.6942 48.6095 48.7761L48.3839 49.1339C48.3608 49.1703 48.3466 49.2114 48.3417 49.254L47.9656 52.6108C47.9493 52.7558 47.8259 52.8654 47.6786 52.8654H43.8689C43.7221 52.8654 43.5984 52.756 43.5821 52.6113L43.1594 48.8987C43.1429 48.754 43.0194 48.6446 42.8726 48.6446H37.6772C37.5354 48.6446 37.4149 48.7465 37.3923 48.8852L36.784 52.6248C36.7614 52.7636 36.6406 52.8654 36.4991 52.8654H32.3214C32.1796 52.8654 32.0591 52.7636 32.0365 52.6248L31.4282 48.8852C31.4056 48.7465 31.2848 48.6446 31.1433 48.6446H26.2789C26.1371 48.6446 26.0165 48.7465 25.994 48.8852L25.3857 52.6248C25.3631 52.7636 25.2423 52.8654 25.1008 52.8654H21.0167C20.8644 52.8654 20.7383 52.7482 20.7286 52.5975L20.4888 48.9123C20.4791 48.7615 20.353 48.6443 20.2007 48.6443H14.6612C14.5155 48.6443 14.3925 48.7519 14.3747 48.8954L13.9108 52.6139C13.893 52.7573 13.7701 52.8649 13.6243 52.8649H10.341C10.2026 52.8649 10.0838 52.7677 10.0576 52.6331L9.32427 48.8759C9.29806 48.7413 9.17906 48.6441 9.04093 48.6441H3.95903C3.72864 49.6599 3.509 50.7034 3.3022 51.7743C3.19133 52.3483 3.08701 52.9161 2.98898 53.4774C1.96416 53.4774 1.45096 53.4774 1.45096 53.4774L1.45044 53.4782Z" fill="white" stroke="white" stroke-width="0.5" stroke-miterlimit="10"/>
<path d="M57.0981 53.126H1.09814V56.2958H57.0981V53.126Z" fill="white" stroke="white" stroke-width="0.5" stroke-miterlimit="10"/>
<path d="M32.0918 19.3145C32.479 19.3924 34.4451 19.8287 35.7176 21.6991C36.9032 23.4416 36.6742 25.2346 36.6092 25.6541" stroke="white" stroke-width="2" stroke-miterlimit="10"/>
<path d="M32.4441 14.0322C33.2368 14.1743 36.7802 14.8961 39.2191 18.1408C42.0521 21.9098 41.1406 26.0846 40.9923 26.7115" stroke="white" stroke-width="2" stroke-miterlimit="10"/>
<path d="M32.0918 8.74805C33.5117 9.0093 38.0052 10.0263 41.3592 14.112C46.5733 20.4637 44.3154 28.4849 44.1085 29.1757" stroke="white" stroke-width="2" stroke-miterlimit="10"/>
<path d="M25.194 42.5596C25.2626 41.4814 25.3313 40.4032 25.3999 39.325H22.9086V36.5744L19.7646 33.7549V38.1967C19.7683 38.4692 19.7719 38.7419 19.7758 39.0144C20.9592 40.2528 22.5232 41.4931 24.5396 42.3142C24.7597 42.4037 24.9781 42.4855 25.194 42.5599V42.5596Z" fill="#FF5800"/>
<path d="M31.9612 37.8037C23.2034 39.0251 18.7164 33.5474 18.7164 33.5471C14.2587 28.105 16.1677 20.1777 17.1446 20.0214C17.7513 19.9243 18.158 22.7992 21.3817 27.2045C21.7891 27.7612 22.5774 28.8318 23.7042 30.0304C28.1639 34.7745 33.131 36.4285 32.7786 37.4181C32.6842 37.6832 32.2573 37.7624 31.961 37.8037H31.9612Z" fill="#FF5800"/>
<path d="M32.6442 37.5341C31.9629 38.0542 29.2849 36.4064 26.2323 33.2029C25.3346 32.2607 24.4043 31.1837 23.483 29.9879C19.4294 24.726 16.2119 20.4156 17.0936 19.7427C17.9752 19.0698 21.7915 22.9362 26.0299 28.0518C30.4778 33.4202 33.5256 36.8612 32.6439 37.5341H32.6442Z" fill="white" stroke="white" stroke-width="0.5" stroke-miterlimit="10"/>
<path d="M26.4565 33.4977C27.0202 31.2353 27.5839 28.9729 28.1476 26.7104C28.2882 26.7906 28.4291 26.8707 28.5698 26.9508C27.983 29.2187 27.3966 31.4866 26.8098 33.7545C26.692 33.6689 26.5741 33.583 26.4565 33.4974V33.4977Z" fill="white"/>
<path d="M23.991 30.9124C25.3307 29.6295 26.6704 28.3465 28.0101 27.0635C28.0792 27.1913 28.1483 27.3189 28.2174 27.4468C26.9147 28.7278 25.6119 30.0087 24.3092 31.2899C24.2031 31.1641 24.097 31.0383 23.991 30.9124Z" fill="white"/>
<path d="M21.5264 27.7683C23.6394 27.5334 25.7527 27.2984 27.8657 27.0635C27.8366 27.2089 27.8075 27.3544 27.7784 27.4998C25.781 27.7067 23.7839 27.9135 21.7864 28.1201C21.6997 28.0027 21.6129 27.8854 21.5261 27.7681L21.5264 27.7683Z" fill="white"/>
<path d="M28.0416 28.1199C28.5279 28.1199 28.9221 27.7257 28.9221 27.2394C28.9221 26.7531 28.5279 26.3589 28.0416 26.3589C27.5553 26.3589 27.1611 26.7531 27.1611 27.2394C27.1611 27.7257 27.5553 28.1199 28.0416 28.1199Z" fill="white"/>
<path d="M47.5886 35.4865C45.9391 38.8582 43.4369 41.7311 40.3652 43.8204C36.9586 46.1375 32.8517 47.4905 28.4303 47.4905C16.6422 47.4905 7.08545 37.8723 7.08545 26.0069C7.08545 14.1415 16.6422 4.52197 28.4303 4.52197C28.4941 4.52197 28.5596 4.52197 28.6235 4.52329V10.0606C28.5596 10.0577 28.4941 10.0577 28.4303 10.0577C19.6786 10.0577 12.585 17.1978 12.585 26.0069C12.585 34.816 19.6786 41.9562 28.4303 41.9562C34.2665 41.9562 39.3655 38.7808 42.1139 34.0515L47.5886 35.4865Z" fill="white" stroke="white" stroke-width="0.5" stroke-miterlimit="10"/>
<path fill-rule="evenodd" clip-rule="evenodd" d="M20.8751 46.083C20.646 45.9963 21.2347 52.0695 21.0967 52.0695C20.9587 52.0695 25.2299 52.0695 25.2299 52.0695L26.1046 47.33L20.8751 46.0827V46.083Z" fill="white" stroke="white" stroke-width="0.5" stroke-miterlimit="10"/>
<path fill-rule="evenodd" clip-rule="evenodd" d="M31.3877 47.2331C31.7592 48.8453 32.1307 50.4574 32.5021 52.0696C34.0025 52.0476 35.5028 52.0253 37.0031 52.0033C37.0096 49.9123 37.0161 47.821 37.0227 45.73C36.1089 46.0348 35.1275 46.3312 34.0808 46.6068C33.145 46.8533 32.2449 47.0598 31.3875 47.2334L31.3877 47.2331Z" fill="white" stroke="white" stroke-width="0.5" stroke-miterlimit="10"/>
<path d="M14.1292 10.1218C13.0564 9.31175 11.9834 8.50145 10.9106 7.69141L7.78979 10.9689C8.68327 12.1069 9.57675 13.2452 10.4702 14.3832C10.937 13.673 11.5087 12.8931 12.204 12.0879C12.8669 11.3202 13.5224 10.6684 14.1294 10.1215L14.1292 10.1218Z" fill="white" stroke="white" stroke-width="0.5" stroke-miterlimit="10"/>
<path d="M24.6957 4.96319C24.1989 3.64221 23.7024 2.32097 23.2057 1L18.7083 2.07067C18.9156 3.5921 19.1232 5.11379 19.3305 6.63522C20.0449 6.27276 20.9236 5.89095 21.956 5.57038C22.9751 5.25379 23.9063 5.07057 24.6954 4.96319H24.6957Z" fill="white" stroke="white" stroke-width="0.5" stroke-miterlimit="10"/>
<path d="M8.14215 19.0604C6.7837 18.9103 5.4255 18.7605 4.06705 18.6104C3.87287 19.2757 3.6787 19.9408 3.48426 20.6062C3.27597 21.3199 3.06742 22.0337 2.85913 22.7472C4.23901 23.2466 5.6189 23.7461 6.99852 24.2456C7.17074 23.1619 7.29279 22.3294 7.37276 21.7683C7.43313 21.3445 7.48305 20.9799 7.61581 20.4869C7.78098 19.8737 7.98717 19.3867 8.14189 19.0604H8.14215Z" fill="white" stroke="white" stroke-width="0.5" stroke-miterlimit="10"/>
<path d="M7.75644 30.9368C6.59356 31.474 5.43094 32.0112 4.26807 32.5481C4.41777 33.2518 4.56773 33.9554 4.71743 34.6591C4.87818 35.4141 5.03893 36.1689 5.19942 36.9239C6.76746 36.7267 8.33524 36.5295 9.90329 36.332C9.41683 35.3609 9.03113 34.5401 8.74672 33.9168C8.4781 33.3282 8.32209 32.9648 8.16265 32.4912C7.95139 31.8632 7.82905 31.3232 7.75617 30.9365L7.75644 30.9368Z" fill="white" stroke="white" stroke-width="0.5" stroke-miterlimit="10"/>
<path d="M12.5403 40.0947C11.6613 41.3816 10.7821 42.6686 9.90308 43.9555C10.3504 44.5241 10.7978 45.0925 11.2451 45.6612C11.7252 46.271 12.205 46.8811 12.685 47.491C14.2232 46.3893 15.7611 45.2878 17.2993 44.1861C16.3611 43.5949 15.6108 43.0212 15.0479 42.5538C14.6021 42.1833 14.2415 41.8525 13.989 41.6126C13.3985 41.0516 12.9161 40.5292 12.5403 40.0947Z" fill="white" stroke="white" stroke-width="0.5" stroke-miterlimit="10"/>
<path d="M41.2493 43.1675C42.4232 44.1391 43.5971 45.1104 44.771 46.082C45.2809 45.5935 45.7907 45.1047 46.3003 44.6162C46.8471 44.092 47.394 43.5678 47.9408 43.0436C47.0045 41.8259 46.0681 40.6081 45.1315 39.3901C44.7228 39.9367 44.3465 40.3661 44.0587 40.675C43.4337 41.3456 42.8853 41.8133 42.3218 42.2938C41.8906 42.6615 41.5193 42.9576 41.249 43.1675H41.2493Z" fill="white" stroke="white" stroke-width="0.5" stroke-miterlimit="10"/>
</svg>
