<svg width="196" height="39" viewBox="0 0 196 39" fill="none" xmlns="http://www.w3.org/2000/svg">
<path d="M1.24017 36.7895C1.24017 36.7895 13.324 36.7837 37.5096 36.7741V36.6348C37.5096 36.5879 37.5107 36.5671 37.5096 36.5342C37.5079 36.484 37.5032 36.4434 37.4996 36.4174C37.4898 36.3642 37.4859 36.3431 37.4859 36.3431C37.4859 36.3431 37.4973 36.4027 37.4968 36.4027C37.4962 36.4027 37.4823 36.3454 37.4739 36.2724C37.4723 36.2589 37.4712 36.2476 37.4705 36.2398L37.1559 33.5991C37.1441 33.4995 37.0578 33.4248 36.9566 33.4268L33.5655 33.4911C33.499 33.4924 33.4375 33.5269 33.4023 33.5827L33.2484 33.8268C33.2326 33.8516 33.223 33.8796 33.2196 33.9087L32.9631 36.198C32.952 36.2969 32.8678 36.3717 32.7674 36.3717H30.1692C30.0691 36.3717 29.9847 36.297 29.9736 36.1983L29.6853 33.6664C29.6741 33.5677 29.5899 33.4931 29.4898 33.4931H25.9465C25.8498 33.4931 25.7676 33.5625 25.7522 33.6572L25.3374 36.2075C25.322 36.3022 25.2396 36.3717 25.1431 36.3717H22.2939C22.1972 36.3717 22.115 36.3022 22.0996 36.2075L21.6847 33.6572C21.6694 33.5625 21.587 33.4931 21.4904 33.4931H18.173C18.0763 33.4931 17.9941 33.5625 17.9787 33.6572L17.5638 36.2075C17.5484 36.3022 17.466 36.3717 17.3695 36.3717H14.5842C14.4803 36.3717 14.3943 36.2917 14.3877 36.1889L14.2242 33.6756C14.2176 33.5728 14.1316 33.4929 14.0277 33.4929H10.2498C10.1504 33.4929 10.0666 33.5663 10.0544 33.6641L9.73804 36.2001C9.72588 36.2979 9.64205 36.3713 9.54266 36.3713H7.30344C7.20906 36.3713 7.12808 36.305 7.11021 36.2132L6.61006 33.6508C6.59218 33.559 6.51103 33.4927 6.41683 33.4927H2.95101C2.79388 34.1855 2.64409 34.8972 2.50306 35.6275C2.42744 36.019 2.3563 36.4062 2.28945 36.789C1.59053 36.789 1.24053 36.789 1.24053 36.789L1.24017 36.7895Z" fill="white" stroke="white" stroke-width="0.5" stroke-miterlimit="10"/>
<path d="M39.1915 36.5493H1V38.7111H39.1915V36.5493Z" fill="white" stroke="white" stroke-width="0.5" stroke-miterlimit="10"/>
<path d="M22.1375 13.4902C22.4015 13.5434 23.7424 13.8409 24.6102 15.1166C25.4188 16.3049 25.2626 17.5277 25.2183 17.8138" stroke="white" stroke-width="2" stroke-miterlimit="10"/>
<path d="M22.3776 9.8877C22.9183 9.98456 25.3348 10.4769 26.9981 12.6897C28.9302 15.2602 28.3086 18.1073 28.2074 18.5348" stroke="white" stroke-width="2" stroke-miterlimit="10"/>
<path d="M22.1375 6.28418C23.1058 6.46235 26.1704 7.15592 28.4578 9.94237C32.0137 14.2741 30.4739 19.7446 30.3327 20.2157" stroke="white" stroke-width="2" stroke-miterlimit="10"/>
<path d="M17.4333 29.3432C17.4801 28.6078 17.527 27.8725 17.5737 27.1371H15.8747V25.2612L13.7305 23.3384V26.3677C13.733 26.5535 13.7355 26.7395 13.7382 26.9253C14.5452 27.7699 15.6119 28.6158 16.987 29.1758C17.1371 29.2368 17.286 29.2926 17.4333 29.3433V29.3432Z" fill="#00C9F9"/>
<path d="M22.0483 26.0997C16.0756 26.9327 13.0155 23.1969 13.0155 23.1968C9.97539 19.4853 11.2773 14.0789 11.9435 13.9723C12.3573 13.9061 12.6346 15.8668 14.8332 18.8712C15.1111 19.2508 15.6486 19.9809 16.4171 20.7983C19.4586 24.0338 22.8461 25.1618 22.6057 25.8367C22.5414 26.0175 22.2503 26.0715 22.0482 26.0997H22.0483Z" fill="#00C9F9"/>
<path d="M22.5143 25.916C22.0496 26.2707 20.2233 25.1469 18.1415 22.9622C17.5292 22.3196 16.8947 21.5851 16.2664 20.7696C13.5019 17.181 11.3076 14.2413 11.9089 13.7824C12.5102 13.3235 15.1129 15.9604 18.0034 19.4492C21.0369 23.1104 23.1154 25.4571 22.5141 25.916H22.5143Z" fill="white" stroke="white" stroke-width="0.5" stroke-miterlimit="10"/>
<path d="M18.2943 23.163C18.6787 21.6201 19.0632 20.0771 19.4476 18.5342C19.5435 18.5888 19.6396 18.6435 19.7355 18.6981C19.3354 20.2448 18.9354 21.7915 18.5353 23.3381C18.4549 23.2798 18.3745 23.2212 18.2943 23.1628V23.163Z" fill="white"/>
<path d="M16.6129 21.3999C17.5265 20.5249 18.4402 19.6499 19.3539 18.7749C19.401 18.8621 19.4481 18.9491 19.4952 19.0363C18.6068 19.9099 17.7183 20.7835 16.8299 21.6573C16.7575 21.5715 16.6852 21.4857 16.6129 21.3999Z" fill="white"/>
<path d="M14.9318 19.2556C16.3728 19.0954 17.8141 18.9351 19.2551 18.7749C19.2353 18.8741 19.2155 18.9733 19.1956 19.0725C17.8334 19.2135 16.4713 19.3546 15.1091 19.4955C15.0499 19.4155 14.9908 19.3354 14.9316 19.2554L14.9318 19.2556Z" fill="white"/>
<path d="M19.3752 19.4954C19.7068 19.4954 19.9756 19.2266 19.9756 18.8949C19.9756 18.5633 19.7068 18.2944 19.3752 18.2944C19.0435 18.2944 18.7747 18.5633 18.7747 18.8949C18.7747 19.2266 19.0435 19.4954 19.3752 19.4954Z" fill="white"/>
<path d="M32.7062 24.5194C31.5812 26.8189 29.8747 28.7782 27.7799 30.2031C25.4566 31.7833 22.6557 32.706 19.6404 32.706C11.601 32.706 5.08337 26.1465 5.08337 18.0544C5.08337 9.96229 11.601 3.40186 19.6404 3.40186C19.6839 3.40186 19.7286 3.40186 19.7721 3.40275V7.17912C19.7286 7.17714 19.6839 7.17715 19.6404 7.17715C13.6718 7.17715 8.83404 12.0466 8.83404 18.0544C8.83404 24.0622 13.6718 28.9317 19.6404 28.9317C23.6207 28.9317 27.0981 26.7661 28.9725 23.5407L32.7062 24.5194Z" fill="white" stroke="white" stroke-width="0.5" stroke-miterlimit="10"/>
<path fill-rule="evenodd" clip-rule="evenodd" d="M14.4876 31.7462C14.3314 31.6871 14.7329 35.829 14.6388 35.829C14.5447 35.829 17.4576 35.829 17.4576 35.829L18.0541 32.5967L14.4876 31.7461V31.7462Z" fill="white" stroke="white" stroke-width="0.5" stroke-miterlimit="10"/>
<path fill-rule="evenodd" clip-rule="evenodd" d="M21.6573 32.5305C21.9106 33.63 22.164 34.7295 22.4173 35.8289C23.4405 35.8139 24.4637 35.7987 25.4869 35.7837C25.4914 34.3577 25.4958 32.9314 25.5003 31.5054C24.8771 31.7133 24.2078 31.9154 23.4939 32.1034C22.8558 32.2715 22.2419 32.4123 21.6571 32.5307L21.6573 32.5305Z" fill="white" stroke="white" stroke-width="0.5" stroke-miterlimit="10"/>
<path d="M9.88723 7.22098C9.15563 6.66854 8.42384 6.11592 7.69223 5.56348L5.56384 7.79869C6.17319 8.57482 6.78253 9.35112 7.39187 10.1272C7.71019 9.64287 8.10014 9.11101 8.57429 8.56182C9.02636 8.03826 9.4734 7.59378 9.88741 7.2208L9.88723 7.22098Z" fill="white" stroke="white" stroke-width="0.5" stroke-miterlimit="10"/>
<path d="M17.0933 3.70286C16.7545 2.80197 16.4159 1.90089 16.0771 1L13.0099 1.73019C13.1513 2.76779 13.2929 3.80557 13.4343 4.84317C13.9215 4.59598 14.5208 4.33558 15.2248 4.11696C15.9199 3.90105 16.5549 3.7761 17.0931 3.70286H17.0933Z" fill="white" stroke="white" stroke-width="0.5" stroke-miterlimit="10"/>
<path d="M5.80396 13.3172C4.87751 13.2148 3.95123 13.1126 3.02478 13.0103C2.89235 13.464 2.75993 13.9176 2.62732 14.3714C2.48527 14.8582 2.34304 15.3449 2.20099 15.8315C3.14206 16.1722 4.08313 16.5128 5.02402 16.8534C5.14147 16.1144 5.22471 15.5466 5.27925 15.1639C5.32042 14.8749 5.35446 14.6262 5.445 14.2901C5.55765 13.8718 5.69827 13.5397 5.80378 13.3172H5.80396Z" fill="white" stroke="white" stroke-width="0.5" stroke-miterlimit="10"/>
<path d="M5.54084 21.4167C4.74777 21.783 3.95488 22.1494 3.1618 22.5156C3.2639 22.9955 3.36617 23.4754 3.46827 23.9552C3.5779 24.4702 3.68753 24.9849 3.79698 25.4999C4.86637 25.3654 5.93559 25.2308 7.00498 25.0961C6.67321 24.4339 6.41017 23.8741 6.21621 23.449C6.03301 23.0476 5.92661 22.7998 5.81788 22.4768C5.6738 22.0485 5.59037 21.6802 5.54066 21.4165L5.54084 21.4167Z" fill="white" stroke="white" stroke-width="0.5" stroke-miterlimit="10"/>
<path d="M8.80353 27.6621C8.20406 28.5398 7.60442 29.4174 7.00494 30.2951C7.31003 30.6829 7.61512 31.0706 7.92021 31.4584C8.2476 31.8743 8.57481 32.2904 8.90219 32.7063C9.95122 31.9549 11.0001 31.2038 12.0491 30.4524C11.4093 30.0492 10.8976 29.6579 10.5137 29.3391C10.2096 29.0865 9.96368 28.8609 9.79148 28.6973C9.38879 28.3147 9.05982 27.9584 8.80353 27.6621Z" fill="white" stroke="white" stroke-width="0.5" stroke-miterlimit="10"/>
<path d="M28.3827 29.7578C29.1833 30.4204 29.984 31.0828 30.7846 31.7454C31.1323 31.4123 31.48 31.0789 31.8275 30.7458C32.2004 30.3883 32.5734 30.0308 32.9463 29.6733C32.3077 28.8428 31.6691 28.0123 31.0304 27.1816C30.7516 27.5544 30.495 27.8472 30.2987 28.0579C29.8725 28.5153 29.4985 28.8342 29.1142 29.1619C28.8201 29.4127 28.5669 29.6146 28.3826 29.7578H28.3827Z" fill="white" stroke="white" stroke-width="0.5" stroke-miterlimit="10"/>
<path d="M40.9898 27.4086V13.4856C40.9898 9.48696 43.3745 7.1167 47.8888 7.1167C52.4031 7.1167 54.7878 9.48696 54.7878 13.4856V16.2255H50.359V13.2265C50.359 11.5231 49.4225 10.8194 48.0164 10.8194C46.6103 10.8194 45.6738 11.5231 45.6738 13.2265V27.7058C45.6738 29.4092 46.6103 30.0761 48.0164 30.0761C49.4225 30.0761 50.359 29.4092 50.359 27.7058V23.744H54.7878V27.4099C54.7878 31.4098 52.4031 33.7788 47.8888 33.7788C43.3745 33.7788 40.9898 31.4085 40.9898 27.4099V27.4086Z" fill="white"/>
<path d="M61.2172 7.48633H67.5625L72.4174 33.4079H67.7334L66.8811 28.2609V28.3346H61.5579L60.7069 33.4079H56.3636L61.2185 7.48633H61.2172ZM66.3273 24.816L64.2412 12.0032H64.1557L62.1117 24.816H66.3273Z" fill="white"/>
<path d="M85.1486 11.189H80.2516V7.48633H94.7296V11.189H89.8326V33.4079H85.1486V11.189Z" fill="white"/>
<path d="M96.9867 7.48618H109.761V11.1889H101.671V18.0392H108.101V21.7419H101.671V29.7037H109.761V33.4064H96.9867V7.48486V7.48618Z" fill="white"/>
<path d="M112.445 7.48633H117.129V29.7052H124.837V33.4079H112.445V7.48633Z" fill="white"/>
<path d="M127.092 7.48618H139.867V11.1889H131.776V18.0392H138.207V21.7419H131.776V29.7037H139.867V33.4064H127.092V7.48486V7.48618Z" fill="white"/>
<path d="M142.252 27.4086V13.4856C142.252 9.48696 144.637 7.1167 149.151 7.1167C153.665 7.1167 156.05 9.48696 156.05 13.4856V16.2255H151.621V13.2265C151.621 11.5231 150.684 10.8194 149.278 10.8194C147.872 10.8194 146.936 11.5231 146.936 13.2265V27.7058C146.936 29.4092 147.872 30.0761 149.278 30.0761C150.684 30.0761 151.621 29.4092 151.621 27.7058V23.744H156.05V27.4099C156.05 31.4098 153.665 33.7788 149.151 33.7788C144.637 33.7788 142.252 31.4085 142.252 27.4099V27.4086Z" fill="white"/>
<path d="M158.604 27.2598V13.6328C158.604 9.4855 161.116 7.11523 165.716 7.11523C170.316 7.11523 172.828 9.4855 172.828 13.6328V27.2598C172.828 31.4071 170.316 33.7773 165.716 33.7773C161.116 33.7773 158.604 31.4071 158.604 27.2598ZM168.143 27.5189V13.3737C168.143 11.5216 167.206 10.8179 165.716 10.8179C164.226 10.8179 163.289 11.5216 163.289 13.3737V27.5189C163.289 29.3709 164.226 30.0746 165.716 30.0746C167.206 30.0746 168.143 29.3709 168.143 27.5189Z" fill="white"/>
<path d="M175.979 7.48633H182.664L185.645 26.038H185.731L188.711 7.48633H195.397V33.4079H190.968V13.7816H190.883L187.476 33.4079H183.559L180.152 13.7816H180.067V33.4079H175.979V7.48633Z" fill="white"/>
</svg>
