<?xml version="1.0" encoding="UTF-8"?>
<svg id="Camada_1" xmlns="http://www.w3.org/2000/svg" version="1.1" viewBox="0 0 2000 2000">
  <!-- Generator: Adobe Illustrator 29.5.1, SVG Export Plug-In . SVG Version: 2.1.0 Build 141)  -->
  <defs>
    <style>
      .st0 {
        fill: #ed1b23;
      }

      .st0, .st1, .st2 {
        fill-rule: evenodd;
      }

      .st1 {
        fill: #ffcb05;
      }

      .st3 {
        display: none;
      }
    </style>
  </defs>
  <g>
    <path class="st1" d="M1544.06,458.05h-900.73c-103.58,0-187.4,89.93-187.4,201.05v882.86h900.73c103.6,0,187.4-89.93,187.4-201.05"/>
    <g>
      <path class="st2" d="M961.1,656.64c-150.16,0-255.76,93.23-260.72,207.08v.83c-4.95,110.55,76.73,200.47,194.71,207.08-13.2-20.62-22.28-46.2-21.44-73.43,3.28-70.95,63.51-128.7,133.65-128.7h170.77c83.34-.83,153.46-69.31,157.6-152.63l2.47-60.23h-377.04Z"/>
      <path class="st0" d="M1107.13,924.78c13.19,20.62,23.92,46.2,22.27,73.42-3.3,70.96-62.7,127.88-133.65,128.71h-169.13c-84.16,0-155.11,68.48-159.24,152.63l-2.48,60.23,377.05-.83c150.15,0,255.76-93.23,260.7-207.08,4.95-110.55-77.56-200.49-195.53-207.08"/>
    </g>
  </g>
  <path class="st3" d="M1789.83,1148.73c-33.6,0-47.72-23.51-47.72-45.28v-167.74l40.81-10.42v174.21c0,9.7,4.05,14.75,14.43,14.75h15.65v34.49h-23.18ZM1386.21,1000.8c-10.05-10.67-26.68-20.1-50.86-20.1h-69.18l.12,167.6h40.79l.02-130.9h28.18v.06h.06c8.16,0,14.41,2.48,19.14,7.2,8.02,8,9.29,21.15,9.39,36.86h-.02v86.82h40.8v-86.51c-.21-28.06-4.14-46.07-18.44-61.04M1073.92,1000.8c-10.05-10.67-26.69-20.1-50.82-20.1h-69.23l.15,167.6h40.8l.02-130.9h28.16v.06h.1c8.13,0,14.39,2.48,19.13,7.2,8,8,9.26,21.15,9.38,36.86v86.82h40.77v-86.51h.02c-.23-28.06-4.16-46.07-18.49-61.04M1561.44,984.81v-1.94h-79.44v.09c-15.94,0-30.04,5.31-39.1,14.45-15.38,15.38-16.62,36.08-16.62,64.63s1.24,49.58,16.62,64.94c9.08,9.12,22.89,14.45,38.89,14.45s28.26-4.41,38.93-16.34c0,0,.58,15.24.58,18.07,0,21.36-14.1,39.76-34.55,48.67l-.06,27.04c43.94,0,74.81-37.28,74.81-76.52v-157.55h-.06ZM1493.75,1104.71c-24.17,0-26.69-21.03-26.69-42.67s2.52-42.37,26.69-42.37v-.12h26.98v42.49c0,21.65-2.85,42.67-26.98,42.67M1181.18,980.93v-.27h-50.65v34.92h45.03c18.3,1.12,25.95,8.99,25.95,25.6v8.19h-38.77c-38.15,0-56.07,21.46-56.07,47.62,0,14.49,4.67,27.69,13.5,36.84,9.8,9.8,23.34,14.52,41.93,14.52s80.26-.1,80.26-.1l.1-109.56c0-35.96-20.94-55.39-61.28-57.75h0ZM1201.51,1121.61l-31.82.04c-16.11,0-23.65-7.59-23.65-18.94,0-.14.04-.23.04-.41v-7.07c0-.15-.04-.25-.04-.41,0-11.64,8.21-18.59,23.01-18.59h32.46v45.38ZM915.31,1001.52c-10.03-10.67-26.69-20.08-50.86-20.08s-40.47,9.41-50.51,20.08c-14.72,15.38-18.53,33.93-18.53,63.39s3.81,48.34,18.53,63.75c10.05,10.67,26.38,20.07,50.51,20.07s40.83-9.41,50.86-20.07c14.72-15.4,18.53-33.93,18.53-63.75s-3.81-48.01-18.53-63.39ZM883.62,1104.77c-4.69,4.74-10.98,7.24-19.17,7.24s-14.08-2.5-18.79-7.24c-8.5-8.44-9.45-22.89-9.45-39.87s.95-31.03,9.45-39.55c4.72-4.67,10.67-7.2,18.8-7.2s14.47,2.52,19.17,7.2c8.48,8.52,9.41,22.62,9.41,39.55s-.93,31.43-9.41,39.87M1703.76,1001.52c-10.03-10.67-26.68-20.08-50.86-20.08s-40.5,9.41-50.53,20.08c-14.74,15.38-18.49,33.93-18.49,63.39s3.74,48.34,18.49,63.75c10.03,10.67,26.38,20.07,50.53,20.07s40.83-9.41,50.86-20.07c14.76-15.4,18.5-33.93,18.5-63.75s-3.74-48.01-18.5-63.39ZM1672.06,1104.77c-4.73,4.74-10.95,7.24-19.17,7.24s-14.08-2.5-18.83-7.24c-8.48-8.44-9.43-22.89-9.43-39.87s.95-31.03,9.43-39.55c4.75-4.67,10.67-7.2,18.84-7.2s14.43,2.52,19.17,7.2c8.45,8.52,9.43,22.62,9.43,39.55s-.98,31.43-9.43,39.87M763.8,1033.57c-9.41-8.78-22.27-14.45-42.68-17.27l-26.38-3.76c-9.1-1.28-16.32-4.75-20.7-8.83-4.72-4.39-6.6-10.34-6.6-15.98,0-15.38,11.31-28.25,34.53-28.25l73.73-.04v-37.93h-72.47c-48.36,0-77.84,27.93-77.84,67.8,0,18.84,5.34,33.27,16.02,43.92,10.05,9.76,24.15,15.7,43.29,18.55l26.98,3.79c10.38,1.53,15.38,3.74,19.77,7.83,4.71,4.39,6.9,10.98,6.9,18.82,0,17.82-13.71,27.52-39.24,27.58v-.12h-70.2v39.02l69.29.06c46.77,0,82.85-24.48,82.85-67.75,0-19.81-5.35-36.12-17.27-47.41"/>
</svg>