<svg width="152" height="151" viewBox="0 0 152 151" fill="none" xmlns="http://www.w3.org/2000/svg">
<path d="M1.94794 142.258C1.94794 142.258 49.6418 142.235 145.101 142.197V141.648C145.101 141.462 145.105 141.38 145.101 141.25C145.094 141.052 145.076 140.892 145.061 140.789C145.023 140.579 145.007 140.496 145.007 140.496C145.007 140.496 145.052 140.731 145.05 140.731C145.048 140.731 144.993 140.505 144.96 140.217C144.953 140.164 144.949 140.119 144.946 140.088L143.705 129.666C143.658 129.273 143.317 128.978 142.918 128.986L129.534 129.24C129.271 129.245 129.028 129.381 128.889 129.601L128.282 130.564C128.22 130.662 128.182 130.773 128.168 130.888L127.156 139.923C127.112 140.314 126.78 140.609 126.383 140.609H116.129C115.734 140.609 115.401 140.314 115.357 139.925L114.219 129.931C114.174 129.542 113.842 129.247 113.447 129.247H99.4622C99.0805 129.247 98.756 129.522 98.6953 129.895L97.0578 139.961C96.9971 140.335 96.6719 140.609 96.2909 140.609H85.0456C84.6639 140.609 84.3394 140.335 84.2787 139.961L82.6412 129.895C82.5805 129.522 82.2553 129.247 81.8743 129.247H68.7805C68.3988 129.247 68.0743 129.522 68.0136 129.895L66.3761 139.961C66.3154 140.335 65.9902 140.609 65.6092 140.609H54.6158C54.2059 140.609 53.8665 140.293 53.8404 139.888L53.1949 129.968C53.1687 129.562 52.8294 129.247 52.4195 129.247H37.5083C37.116 129.247 36.7851 129.536 36.7372 129.922L35.4884 139.932C35.4404 140.318 35.1095 140.607 34.7173 140.607H25.8792C25.5067 140.607 25.1871 140.346 25.1165 139.984L23.1425 129.87C23.0719 129.508 22.7516 129.246 22.3798 129.246H8.70048C8.08033 131.98 7.4891 134.789 6.93244 137.672C6.63401 139.217 6.35321 140.745 6.08934 142.256C3.33076 142.256 1.94935 142.256 1.94935 142.256L1.94794 142.258Z" fill="#005680" stroke="#231F20" stroke-width="0.5" stroke-miterlimit="10"/>
<path d="M151.739 141.31H1V149.842H151.739V141.31Z" fill="#005680" stroke="#231F20" stroke-width="0.5" stroke-miterlimit="10"/>
<path d="M84.4279 50.2988C85.4701 50.5086 90.7626 51.683 94.1879 56.7178C97.3791 61.4081 96.7628 66.2346 96.5878 67.3636" stroke="#005680" stroke-width="2" stroke-miterlimit="10"/>
<path d="M85.3759 36.0786C87.5097 36.4609 97.0479 38.404 103.613 47.1378C111.239 57.2833 108.785 68.5208 108.386 70.2082" stroke="#005680" stroke-width="2" stroke-miterlimit="10"/>
<path d="M84.4279 21.8569C88.2501 22.5602 100.346 25.2976 109.374 36.2955C123.409 53.3927 117.331 74.984 116.774 76.8436" stroke="#005680" stroke-width="2" stroke-miterlimit="10"/>
<path d="M65.8611 112.868C66.0456 109.966 66.2307 107.064 66.4152 104.161H59.7092V96.7573L51.2464 89.168V101.124C51.2562 101.858 51.2661 102.592 51.2766 103.325C54.462 106.659 58.6719 109.997 64.0994 112.208C64.692 112.449 65.2797 112.669 65.8611 112.869V112.868Z" fill="#00C9F9"/>
<path d="M84.0762 100.067C60.5021 103.355 48.4241 88.6101 48.4241 88.6094C36.4251 73.9604 41.5637 52.622 44.1933 52.2012C45.8263 51.9398 46.921 59.6784 55.5984 71.5365C56.6953 73.0351 58.817 75.9168 61.8501 79.143C73.8547 91.9132 87.225 96.3655 86.2763 99.0291C86.0223 99.7427 84.8733 99.9559 84.0755 100.067H84.0762Z" fill="#00C9F9"/>
<path d="M85.9153 99.3416C84.0813 100.741 76.8727 96.3061 68.6561 87.6831C66.2395 85.1467 63.7353 82.2478 61.2554 79.0289C50.344 64.8651 41.6834 53.2625 44.0566 51.4512C46.4299 49.64 56.7025 60.0473 68.1112 73.8174C80.084 88.2679 88.2878 97.5303 85.9146 99.3416H85.9153Z" fill="white" stroke="#005680" stroke-width="0.5" stroke-miterlimit="10"/>
<path d="M69.2593 88.4767C70.7766 82.3868 72.2939 76.2969 73.8112 70.207C74.1897 70.4227 74.569 70.6384 74.9476 70.8541C73.3682 76.9587 71.7897 83.0633 70.2103 89.1679C69.8931 88.9375 69.5758 88.7064 69.2593 88.476V88.4767Z" fill="#005680"/>
<path d="M62.6228 81.5163C66.229 78.0628 69.8353 74.6093 73.4415 71.1558C73.6274 71.4999 73.8134 71.8434 73.9993 72.1876C70.4927 75.6356 66.9861 79.0836 63.4794 82.5323C63.1939 82.1936 62.9083 81.855 62.6228 81.5163Z" fill="#005680"/>
<path d="M55.9875 73.053C61.6753 72.4206 67.3638 71.7882 73.0516 71.1558C72.9733 71.5473 72.895 71.9388 72.8166 72.3303C67.44 72.887 62.0641 73.4438 56.6876 73.9999C56.454 73.684 56.2204 73.3682 55.9868 73.0523L55.9875 73.053Z" fill="#005680"/>
<path d="M73.5254 74C74.8344 74 75.8955 72.9389 75.8955 71.6299C75.8955 70.3209 74.8344 69.2598 73.5254 69.2598C72.2164 69.2598 71.1553 70.3209 71.1553 71.6299C71.1553 72.9389 72.2164 74 73.5254 74Z" fill="#005680"/>
<path d="M126.142 93.8291C121.702 102.905 114.966 110.638 106.698 116.262C97.5285 122.499 86.4735 126.141 74.5721 126.141C42.8414 126.141 17.1168 100.251 17.1168 68.3123C17.1168 36.3733 42.8414 10.4797 74.5721 10.4797C74.7441 10.4797 74.9203 10.4797 75.0922 10.4833V25.3883C74.9203 25.3805 74.7441 25.3805 74.5721 25.3805C51.0146 25.3805 31.9204 44.6001 31.9204 68.3123C31.9204 92.0245 51.0146 111.244 74.5721 111.244C90.2821 111.244 104.007 102.697 111.405 89.9665L126.142 93.8291Z" fill="#005680" stroke="#231F20" stroke-width="0.5" stroke-miterlimit="10"/>
<path fill-rule="evenodd" clip-rule="evenodd" d="M54.2347 122.353C53.6179 122.12 55.2026 138.467 54.8312 138.467C54.4599 138.467 65.9569 138.467 65.9569 138.467L68.3112 125.71L54.2347 122.352V122.353Z" fill="#005680" stroke="#231F20" stroke-width="0.5" stroke-miterlimit="10"/>
<path fill-rule="evenodd" clip-rule="evenodd" d="M82.5327 125.448C83.5326 129.788 84.5326 134.127 85.5325 138.467C89.571 138.407 93.6095 138.347 97.648 138.288C97.6656 132.66 97.6831 127.03 97.7007 121.402C95.2412 122.222 92.5993 123.02 89.7818 123.762C87.263 124.426 84.84 124.982 82.532 125.449L82.5327 125.448Z" fill="#005680" stroke="#231F20" stroke-width="0.5" stroke-miterlimit="10"/>
<path d="M36.0772 25.5542C33.1896 23.3738 30.3013 21.1926 27.4137 19.0122L19.0131 27.8344C21.4181 30.8977 23.8231 33.9618 26.2282 37.0251C27.4845 35.1133 29.0236 33.0141 30.8951 30.8464C32.6794 28.78 34.4438 27.0257 36.0779 25.5535L36.0772 25.5542Z" fill="#005680" stroke="#231F20" stroke-width="0.5" stroke-miterlimit="10"/>
<path d="M64.5189 11.668C63.1818 8.11223 61.8454 4.55576 60.5083 1L48.4022 3.88201C48.9603 7.97734 49.5191 12.0734 50.0772 16.1687C52.0001 15.1931 54.3655 14.1653 57.1444 13.3024C59.8877 12.4502 62.3941 11.9571 64.5182 11.668H64.5189Z" fill="#005680" stroke="#231F20" stroke-width="0.5" stroke-miterlimit="10"/>
<path d="M19.9609 49.6144C16.3042 49.2103 12.6483 48.8069 8.99162 48.4028C8.46894 50.1939 7.94626 51.9842 7.42288 53.7752C6.86221 55.6965 6.30084 57.6177 5.74017 59.5382C9.4545 60.8827 13.1688 62.2271 16.8825 63.5716C17.346 60.6547 17.6746 58.4137 17.8898 56.9033C18.0523 55.7626 18.1867 54.781 18.5441 53.4541C18.9887 51.8034 19.5437 50.4927 19.9601 49.6144H19.9609Z" fill="#005680" stroke="#231F20" stroke-width="0.5" stroke-miterlimit="10"/>
<path d="M18.9223 81.5835C15.7921 83.0295 12.6626 84.4755 9.53241 85.9208C9.93537 87.8149 10.339 89.7089 10.742 91.603C11.1747 93.6354 11.6074 95.6671 12.0394 97.6995C16.2602 97.1686 20.4803 96.6377 24.7011 96.106C23.3917 93.4921 22.3535 91.2827 21.5879 89.605C20.8649 88.0206 20.4449 87.0423 20.0158 85.7677C19.4471 84.0773 19.1178 82.6236 18.9216 81.5828L18.9223 81.5835Z" fill="#005680" stroke="#231F20" stroke-width="0.5" stroke-miterlimit="10"/>
<path d="M31.8 106.234C29.4339 109.698 27.0671 113.162 24.701 116.626C25.9052 118.157 27.1094 119.687 28.3136 121.218C29.6057 122.859 30.8972 124.502 32.1893 126.143C36.3298 123.178 40.4696 120.213 44.61 117.247C42.0846 115.656 40.0649 114.111 38.5497 112.853C37.3497 111.856 36.379 110.966 35.6993 110.32C34.1099 108.81 32.8115 107.404 31.8 106.234Z" fill="#005680" stroke="#231F20" stroke-width="0.5" stroke-miterlimit="10"/>
<path d="M109.078 114.505C112.238 117.12 115.398 119.735 118.557 122.35C119.93 121.035 121.302 119.719 122.674 118.404C124.146 116.993 125.618 115.582 127.09 114.171C124.569 110.893 122.049 107.616 119.528 104.337C118.428 105.808 117.415 106.964 116.64 107.795C114.958 109.601 113.481 110.86 111.965 112.153C110.804 113.143 109.804 113.94 109.077 114.505H109.078Z" fill="#005680" stroke="#231F20" stroke-width="0.5" stroke-miterlimit="10"/>
</svg>
